<svg width="21" height="22" viewBox="0 0 21 22" fill="none" xmlns="http://www.w3.org/2000/svg">
<g clip-path="url(#clip0_1_185)">
<path d="M17.9246 3.09903C15.9414 1.11589 13.3046 0.0236816 10.5 0.0236816C7.69531 0.0236816 5.0585 1.11589 3.07535 3.09903C1.09216 5.08222 0 7.71903 0 10.5237C0 13.3283 1.09216 15.9651 3.07535 17.9483C5.05854 19.9315 7.69531 21.0237 10.5 21.0237C13.3046 21.0237 15.9414 19.9315 17.9246 17.9483C19.9078 15.9651 21 13.3283 21 10.5237C21 7.71903 19.9078 5.08226 17.9246 3.09903ZM10.5 19.7932C5.38876 19.7932 1.23047 15.6349 1.23047 10.5237C1.23047 5.41244 5.38876 1.25415 10.5 1.25415C15.6112 1.25415 19.7695 5.41244 19.7695 10.5237C19.7695 15.6349 15.6112 19.7932 10.5 19.7932Z" fill="#60A6DA"/>
<path d="M15.5164 7.15462C15.2762 6.91444 14.8866 6.91444 14.6464 7.15466L9.21349 12.5876L6.3536 9.72766C6.11337 9.48743 5.7238 9.48743 5.48353 9.72766C5.24326 9.96788 5.24326 10.3575 5.48353 10.5977L8.77844 13.8926C8.89857 14.0128 9.05603 14.0728 9.21345 14.0728C9.37087 14.0728 9.52837 14.0127 9.64846 13.8926L15.5164 8.02469C15.7567 7.78446 15.7567 7.39489 15.5164 7.15462Z" fill="#60A6DA"/>
</g>
<defs>
<clipPath id="clip0_1_185">
<rect width="21" height="21" fill="white" transform="translate(0 0.0236816)"/>
</clipPath>
</defs>
</svg>
